<svg xmlns="http://www.w3.org/2000/svg" viewBox="0 0 321.05 65.24"><title>Asset 1</title><g id="Layer_2" data-name="Layer 2"><g id="Layer_1-2" data-name="Layer 1"><path d="M0,0H7.06V7.13H0ZM.07,14.4h7V50.84h-7Z"/><path d="M18,14.4h6.77v4.82a25.56,25.56,0,0,1-.14,2.66h.14a14.83,14.83,0,0,1,13.68-8.35C47,13.54,51,18.22,51,27.51V50.84H44V29.09c0-5.11-1.08-9.14-6.91-9.14a11.93,11.93,0,0,0-11.52,8.93,17.24,17.24,0,0,0-.58,4.9V50.84H18Z"/><path d="M62.93,20.52H58.18V14.91h5V4.39h6.77V14.91H78.7v5.62H69.91v16.2c0,7.27,5.11,8.21,7.78,8.21a8.4,8.4,0,0,0,1.66-.14V51a19.14,19.14,0,0,1-2.45.14c-4.68,0-14-1.44-14-13.61Z"/><path d="M87.19,14.4H94v6.34a26.13,26.13,0,0,1-.14,2.74H94c1.66-5.33,5.9-9.5,11.52-9.5a12.39,12.39,0,0,1,1.8.14V21a10.07,10.07,0,0,0-2-.22C100.8,20.81,96.7,24,95,29.38a22.13,22.13,0,0,0-.86,6.55V50.84h-7Z"/><path d="M131,13.54c10.87,0,19.66,8,19.66,19S141.84,51.7,131,51.7s-19.66-8.06-19.66-19.15S120.1,13.54,131,13.54Zm0,32.11c6.91,0,12.53-5.47,12.53-13.1s-5.62-13-12.53-13a12.55,12.55,0,0,0-12.53,13C118.44,40.18,124.13,45.65,131,45.65Z"/><path d="M159.33,41.4a15.63,15.63,0,0,0,10.44,4.25c3,0,6-1.58,6-4.54,0-6.7-18.72-5.33-18.72-17.21,0-6.62,5.9-10.37,13.18-10.37,8,0,11.74,4,11.74,4l-2.81,5.26a13.33,13.33,0,0,0-9-3.24c-3,0-6,1.3-6,4.46,0,6.55,18.72,5.11,18.72,17.07,0,6-5.18,10.58-13.18,10.58A19.59,19.59,0,0,1,156,46.37Z"/><path d="M191.16,14.4h6.41v3.1a25.55,25.55,0,0,1-.14,2.66h.14s3.1-6.62,12.24-6.62c9.79,0,16,7.78,16,19.08,0,11.59-7,19.08-16.49,19.08a12.68,12.68,0,0,1-11.16-6H198s.14,1.3.14,3.17V65.24h-7Zm17.07,31.32c5.76,0,10.51-4.75,10.51-13,0-7.92-4.25-13-10.3-13-5.47,0-10.51,3.82-10.51,13.1C197.93,39.24,201.53,45.72,208.22,45.72Z"/><path d="M250.06,13.54c10.3,0,15.77,7.63,15.77,17.07,0,.94-.22,3-.22,3H239c.36,8,6,12,12.53,12a17.37,17.37,0,0,0,10.8-4.25l2.88,5.11a21.69,21.69,0,0,1-14.11,5.18c-11.45,0-19.3-8.28-19.3-19.08C231.84,21,239.69,13.54,250.06,13.54Zm8.64,14.83c-.22-6.26-4.1-9.29-8.78-9.29-5.33,0-9.65,3.31-10.66,9.29Z"/><path d="M291.24,13.54c9.15,0,13.68,5.33,13.68,5.33l-3.31,4.9a14.76,14.76,0,0,0-10.08-4.18c-7.34,0-12.67,5.47-12.67,13s5.33,13.1,12.89,13.1A16.51,16.51,0,0,0,303,40.76l2.81,5.11a20,20,0,0,1-14.55,5.83c-11.45,0-19.51-8.14-19.51-19.08S279.79,13.54,291.24,13.54Z"/><path d="M313.7,43.42H321v7.42H313.7Z"/></g></g></svg>